<?xml version="1.0" encoding="UTF-8" standalone="no"?>
<!DOCTYPE svg PUBLIC "-//W3C//DTD SVG 1.1//EN" "http://www.w3.org/Graphics/SVG/1.1/DTD/svg11.dtd">
<svg version="1.1" xmlns="http://www.w3.org/2000/svg" xmlns:xlink="http://www.w3.org/1999/xlink" preserveAspectRatio="xMidYMid meet" viewBox="0 0 640 640" width="640" height="640"><defs><path d="M65.59 285.52L209.44 119.09L65.59 285.52Z" id="e4aE90SDxL"></path><path d="M353.29 285.52L209.44 119.09L353.29 285.52Z" id="f2w0JW9WpF"></path><path d="M289.09 434.13L129.79 539.93L289.09 434.13Z" id="a53SlGNwL"></path><path d="M65.59 285.52L129.79 285.52L129.79 539.93L65.59 539.93L65.59 285.52Z" id="b2Wk69zrQC"></path><path d="M289.09 285.52L353.29 285.52L353.29 539.93L289.09 539.93L289.09 285.52Z" id="aPcBF5gUc"></path><path d="M129.79 305.97L249.86 164.5L129.79 305.97Z" id="b1zCtrbJZ6"></path><path d="M289.09 305.97L169.02 168.07L289.09 305.97Z" id="f16u9Dr7F0"></path><path d="M289.09 359.83L129.79 465.63L289.09 359.83Z" id="h4yKvAjLiA"></path><path d="M512.59 434.13L353.29 539.93L512.59 434.13Z" id="b7c5Y5zzZ"></path><path d="M512.59 179.72L353.29 285.52L512.59 179.72Z" id="aTURjvJPC"></path><path d="M368.74 13.29L209.44 119.09L368.74 13.29Z" id="a1XCeFBnfi"></path><path d="M512.59 434.13L512.59 179.72L368.74 13.29" id="jxJcmhteE"></path><path d="M129.79 305.97L65.59 285.52L129.79 305.97Z" id="b9Q9yYeE8"></path><path d="M289.09 305.97L353.29 285.52L289.09 305.97Z" id="a1XIT2oGWm"></path><path d="M65.59 285.52L129.79 285.52L129.79 539.93L65.59 539.93L65.59 285.52Z" id="b4e0TYx3uS"></path><path d="M289.09 285.52L353.29 285.52L353.29 539.93L289.09 539.93L289.09 285.52Z" id="lwxf6ggpf"></path><path d="M209.44 213.71L289.09 305.97L353.29 285.78L209.44 119.09L209.44 213.71Z" id="a2fyr1PnF1"></path><path d="M209.44 119.09L209.44 212.53L129.79 305.97L65.59 285.52L209.44 119.09Z" id="akwWPMxlP"></path><path d="M129.79 539.93L289.09 434.13L289.09 359.83L129.79 465.63L129.79 539.93Z" id="aaqYDJZJb"></path></defs><g><g><g><g><use xlink:href="#e4aE90SDxL" opacity="1" fill-opacity="0" stroke="#000000" stroke-width="1" stroke-opacity="1"></use></g></g><g><g><use xlink:href="#f2w0JW9WpF" opacity="1" fill-opacity="0" stroke="#000000" stroke-width="1" stroke-opacity="1"></use></g></g><g><g><use xlink:href="#a53SlGNwL" opacity="1" fill-opacity="0" stroke="#000000" stroke-width="1" stroke-opacity="1"></use></g></g><g><g><use xlink:href="#b2Wk69zrQC" opacity="1" fill-opacity="0" stroke="#000000" stroke-width="1" stroke-opacity="1"></use></g></g><g><g><use xlink:href="#aPcBF5gUc" opacity="1" fill-opacity="0" stroke="#000000" stroke-width="1" stroke-opacity="1"></use></g></g><g><g><use xlink:href="#b1zCtrbJZ6" opacity="1" fill-opacity="0" stroke="#000000" stroke-width="1" stroke-opacity="1"></use></g></g><g><g><use xlink:href="#f16u9Dr7F0" opacity="1" fill-opacity="0" stroke="#000000" stroke-width="1" stroke-opacity="1"></use></g></g><g><g><use xlink:href="#h4yKvAjLiA" opacity="1" fill-opacity="0" stroke="#000000" stroke-width="1" stroke-opacity="1"></use></g></g><g><g><use xlink:href="#b7c5Y5zzZ" opacity="1" fill-opacity="0" stroke="#000000" stroke-width="3" stroke-opacity="1"></use></g></g><g><g><use xlink:href="#aTURjvJPC" opacity="1" fill-opacity="0" stroke="#000000" stroke-width="3" stroke-opacity="1"></use></g></g><g><g><use xlink:href="#a1XCeFBnfi" opacity="1" fill-opacity="0" stroke="#000000" stroke-width="3" stroke-opacity="1"></use></g></g><g><g><use xlink:href="#jxJcmhteE" opacity="1" fill-opacity="0" stroke="#000000" stroke-width="3" stroke-opacity="1"></use></g></g><g><g><use xlink:href="#b9Q9yYeE8" opacity="1" fill-opacity="0" stroke="#000000" stroke-width="1" stroke-opacity="1"></use></g></g><g><g><use xlink:href="#a1XIT2oGWm" opacity="1" fill-opacity="0" stroke="#000000" stroke-width="1" stroke-opacity="1"></use></g></g><g><use xlink:href="#b4e0TYx3uS" opacity="1" fill="#000000" fill-opacity="1"></use></g><g><use xlink:href="#lwxf6ggpf" opacity="1" fill="#000000" fill-opacity="1"></use></g><g><use xlink:href="#a2fyr1PnF1" opacity="1" fill="#000000" fill-opacity="1"></use><g><use xlink:href="#a2fyr1PnF1" opacity="1" fill-opacity="0" stroke="#000000" stroke-width="1" stroke-opacity="1"></use></g></g><g><use xlink:href="#akwWPMxlP" opacity="1" fill="#000000" fill-opacity="1"></use><g><use xlink:href="#akwWPMxlP" opacity="1" fill-opacity="0" stroke="#000000" stroke-width="1" stroke-opacity="1"></use></g></g><g><use xlink:href="#aaqYDJZJb" opacity="1" fill="#000000" fill-opacity="1"></use><g><use xlink:href="#aaqYDJZJb" opacity="1" fill-opacity="0" stroke="#000000" stroke-width="1" stroke-opacity="1"></use></g></g></g></g></svg>